<?xml version="1.0" encoding="utf-8"?>
<!-- Generator: Adobe Illustrator 16.0.4, SVG Export Plug-In . SVG Version: 6.00 Build 0)  -->
<!DOCTYPE svg PUBLIC "-//W3C//DTD SVG 1.1//EN" "http://www.w3.org/Graphics/SVG/1.1/DTD/svg11.dtd">
<svg version="1.1" id="Layer_1" xmlns="http://www.w3.org/2000/svg" xmlns:xlink="http://www.w3.org/1999/xlink" x="0px" y="0px"
	 width="500px" height="500px" viewBox="0 0 500 500" enable-background="new 0 0 500 500" xml:space="preserve">
<g>
	<g>
		<defs>
			<rect id="SVGID_1_" x="0" width="500" height="500"/>
		</defs>
		<use xlink:href="#SVGID_1_"  overflow="visible" fill="#F26739"/>
		<clipPath id="SVGID_2_">
			<use xlink:href="#SVGID_1_"  overflow="visible"/>
		</clipPath>
		<path clip-path="url(#SVGID_2_)" fill="#F26739" d="M466.553,136.348C397.521,20.397,244.622-19.376,125.062,47.622
			c-119.56,66.88-160.577,215.19-91.5,331.15c68.97,115.944,221.933,155.644,341.501,88.705
			C494.629,400.537,535.582,252.293,466.553,136.348L466.553,136.348z M350.035,425.471
			c-95.641,53.562-217.954,21.766-273.192-70.964c-55.236-92.744-22.468-211.353,73.189-264.915
			c95.643-53.562,218.011-21.787,273.185,70.957C478.453,253.299,445.678,371.907,350.035,425.471L350.035,425.471z
			 M340.027,247.662l-130.919-74.027c-11.903-6.754-21.547-1.36-21.485,12.015l0.672,146.958
			c0.068,13.436,9.833,18.881,21.781,12.134l129.89-72.739C351.93,265.314,351.99,254.425,340.027,247.662L340.027,247.662z
			 M340.027,247.662"/>
	</g>
</g>
<g>
	<path d="M213.758,180.534c7.546-0.017,13.716,4.828,13.729,10.793l0.279,129.69c0.013,6.031-6.136,10.842-13.683,10.857
		l-27.416,0.061c-7.546,0.016-13.639-4.768-13.652-10.799l-0.279-129.691c-0.013-5.966,6.059-10.836,13.605-10.852L213.758,180.534z
		 M213.758,180.534"/>
	<path d="M323.242,180.299c7.637-0.017,13.731,4.829,13.744,10.794l0.278,129.69c0.013,6.031-6.06,10.84-13.697,10.857
		l-27.324,0.059c-7.571,0.016-13.716-4.768-13.729-10.799l-0.278-129.69c-0.014-5.965,6.11-10.836,13.681-10.853L323.242,180.299z
		 M323.242,180.299"/>
</g>
</svg>
